<svg version="1.2" xmlns="http://www.w3.org/2000/svg" viewBox="0 0 500 500" width="500" height="500"><style>.a{fill:#1a3a5f}</style><path  d="m36.5 189c1.7 0.4 5.2 1.3 8 2 2.7 0.6 10.8 4 18 7.6 16.3 8.2 20 8.7 33.6 5 14.3-3.9 21.6-4.4 27.1-1.8 13.1 6.4 11.3 23.3-6.9 63.8-3 6.7-8 16.1-11.1 21-3.2 4.9-6.2 9.6-6.7 10.4-1.3 2.3 9.3-9.5 14.8-16.3 17.2-21.4 30-47.7 31.4-64.8 1-12.1-3.4-19.2-13.9-22.4-8.7-2.5-13.9-2-28.8 3.2-19 6.6-22.6 6.5-38-0.9-13.5-6.6-17.6-7.8-25-7.7-4.7 0.1-5 0.2-2.5 0.9z"/><path fill-rule="evenodd" d="m476 258v1h-298v-1z"/><path class="a" d="m27.5 193.6c-6.7 3.5-11.1 10.2-12.6 19.2-1.1 6.9 0.2 25 2.6 36.8 4.7 22.6 21.7 63.8 28.9 70.2 2 1.8 4.1 3.2 4.6 3.2 2.1 0 5.6-5.1 10.6-15.7 13.5-28.6 27.4-40.9 51.7-45.8 3-0.6 3.7-2.5 0.9-2.5-4.2 0-19.3 4.5-26.7 7.9-12.3 5.7-25 19-32 33.3-3.6 7.3-5.7 9.3-8.2 7.9-6.7-3.5-15-24.1-20.4-50.6-1.7-7.9-2-12.7-1.7-23 0.3-11.8 0.6-13.6 3.1-18.7 6-12.3 18.2-15.8 35.2-10l6 2-3-2.4c-4.4-3.5-17.1-10-23.4-11.8-6.9-2-11.8-2-15.6 0z"/><path class="a" d="m190.5 248h-22.3v-31.5h5.9v26.6h16.4zm18.3 0.4q-3.6 0-6.7-1.2-3.1-1.2-5.3-3.3-2.3-2.3-3.6-5.2-1.2-3-1.2-6.5 0-3.5 1.2-6.5 1.3-2.9 3.6-5.1 2.3-2.2 5.4-3.4 3-1.2 6.7-1.2 3.8 0 7 1.4 3.2 1.3 5.4 3.9l-3.8 3.5q-1.7-1.8-3.8-2.7-2.1-1-4.6-1-2.4 0-4.5 0.8-2 0.8-3.6 2.3-1.5 1.5-2.3 3.6-0.8 2-0.8 4.4 0 2.4 0.8 4.5 0.8 2 2.3 3.5 1.6 1.5 3.6 2.3 2.1 0.8 4.5 0.8 2.5 0 4.6-0.9 2.1-1 3.8-2.9l3.8 3.6q-2.2 2.6-5.4 4-3.2 1.3-7.1 1.3zm19-0.4h-6l14.1-31.5h5.8l14.2 31.5h-6.1l-12.2-28.4h2.4zm20.6-7.3h-20.1l1.5-4.6h17zm25.6 7.3h-13.8v-31.5h13.8q5.1 0 8.9 2 3.9 1.9 6.1 5.5 2.2 3.5 2.2 8.2 0 4.8-2.2 8.3-2.2 3.5-6.1 5.5-3.8 2-8.9 2zm-7.9-26.6v21.6h7.6q3.5 0 6.1-1.3 2.6-1.4 4-3.8 1.5-2.4 1.5-5.7 0-3.3-1.5-5.6-1.4-2.5-4-3.8-2.6-1.4-6.1-1.4zm56.9 26.6h-13.8v-31.5h13.8q5.1 0 8.9 2 3.9 1.9 6.1 5.5 2.2 3.5 2.2 8.2 0 4.8-2.2 8.3-2.2 3.5-6.1 5.5-3.8 2-8.9 2zm-7.9-26.6v21.6h7.6q3.6 0 6.1-1.3 2.6-1.4 4-3.8 1.5-2.4 1.5-5.7 0-3.3-1.5-5.6-1.4-2.5-4-3.8-2.5-1.4-6.1-1.4zm54.8 26.6h-23.6v-31.5h23v4.9h-17.2v21.7h17.8zm-2.6-13.6h-15.7v-4.8h15.7zm15.8 13.6h-5.8v-31.5h4.8l19.7 24.2h-2.4v-24.2h5.8v31.5h-4.8l-19.7-24.3h2.4zm42.4 0h-5.9v-26.5h-10.4v-5h26.7v5h-10.4zm15.3 0h-6l14.2-31.5h5.7l14.2 31.5h-6.1l-12.2-28.4h2.4zm20.7-7.3h-20.2l1.6-4.6h17zm33 7.3h-22.3v-31.5h5.9v26.5h16.4z"/><path class="a" d="m207.2 292h2.7v-15l6.7 15h1.8l6.7-15v15h2.6v-20.1h-2.8l-7.4 16.6-7.4-16.6h-2.9zm38.6 0h2.8l-7.3-20.1h-3l-7.3 20.1h2.7l1.7-4.5h8.8zm-2.4-6.6h-7.3l3.6-10.2zm19.8 6.6h3.5l-9.3-10.1 9.2-10.1h-3.4l-8.3 9.4v-9.4h-2.6v20.2h2.6v-9.2zm16.9-20.2h-10.9v20.2h10.9v-2.2h-8.2v-6.9h7.3v-2.2h-7.3v-6.8h8.2zm17.1 12.7v7.6h2.6v-7.6l6.6-12.6h-2.9l-5 10.2-5-10.2h-3zm30.4-2.5c0-6.1-4.4-10.3-10.1-10.3-5.7 0-10.2 4.2-10.2 10.3 0 6 4.5 10.3 10.2 10.3 5.7 0 10.1-4.3 10.1-10.3zm-17.6 0c0-5 3.2-8.1 7.5-8.1 4.2 0 7.4 3.1 7.4 8.1 0 4.9-3.2 8-7.4 8-4.3 0-7.5-3.1-7.5-8zm21.3 2.6c0 5.3 3.4 7.7 7.6 7.7 4.1 0 7.6-2.4 7.6-7.7v-12.7h-2.7v12.8c0 3.7-1.9 5.3-4.9 5.3-3 0-5-1.6-5-5.3v-12.8h-2.6zm30.8-6.8c0 2.2-1.3 3.9-4.3 3.9h-3.8v-7.7h3.8c3.1 0 4.3 1.5 4.3 3.8zm-10.8-6v20.2h2.7v-8.2h3.1l4.9 8.2h3.1l-5.1-8.4c3.4-0.8 4.9-3.3 4.9-5.8 0-3.3-2.3-6-7.1-6zm38.2 14.7c0-7.5-10.9-4.2-10.9-9.4 0-2.2 1.7-3.3 3.9-3.3 2.4 0.1 3.7 1.6 3.9 3h2.9c-0.3-3.1-2.9-5.2-6.7-5.2-4 0-6.7 2.2-6.7 5.6 0 7.5 10.9 4 10.9 9.4 0 2-1.5 3.4-4 3.4-2.9 0-4-1.7-4.2-3.4h-2.8c0 3.4 2.9 5.6 7 5.6 4.3 0 6.7-2.8 6.7-5.7zm3.8 5.5h2.7v-15l6.7 15h1.8l6.7-14.9v14.9h2.6v-20h-2.8l-7.4 16.6-7.4-16.6h-2.9zm25 0h2.7v-20.2h-2.7zm7-20.3v20.3h9.8v-2.2h-7.1v-18.1zm23.9 0h-10.9v20.3h10.9v-2.2h-8.3v-7h7.4v-2.2h-7.4v-6.7h8.3z"/></svg>