<?xml version="1.0" standalone="no"?>
<!DOCTYPE svg PUBLIC "-//W3C//DTD SVG 20010904//EN"
 "http://www.w3.org/TR/2001/REC-SVG-20010904/DTD/svg10.dtd">
<svg version="1.0" xmlns="http://www.w3.org/2000/svg"
 width="143.000000pt" height="152.000000pt" viewBox="0 0 143.000000 152.000000"
 preserveAspectRatio="xMidYMid meet">

<g transform="translate(0.000000,152.000000) scale(0.100000,-0.100000)"
fill="#000000" stroke="none">
<path d="M330 1380 c8 -5 25 -10 38 -10 37 0 132 -36 212 -80 91 -50 176 -80
227 -80 21 0 79 11 128 25 134 37 211 42 267 17 64 -28 83 -65 82 -162 -1 -86
-20 -161 -81 -313 -67 -166 -126 -288 -179 -368 -27 -41 -53 -80 -57 -86 -5
-8 -3 -11 5 -7 7 3 46 45 87 93 257 306 407 659 347 816 -21 53 -65 91 -132
111 -81 24 -137 18 -284 -33 -188 -65 -232 -65 -359 0 -52 26 -120 57 -152 67
-61 21 -177 28 -149 10z"/>
<path d="M235 1334 c-67 -37 -109 -99 -125 -184 -12 -63 1 -258 25 -374 46
-220 206 -618 282 -698 58 -61 80 -44 159 120 138 289 273 408 517 457 15 3
27 10 27 16 0 24 -202 -27 -294 -73 -114 -57 -240 -190 -304 -320 -59 -117
-85 -121 -146 -25 -55 88 -105 238 -147 441 -17 82 -20 126 -17 233 4 122 7
137 34 190 20 40 43 67 74 88 42 28 51 30 135 29 67 0 104 -6 145 -22 l55 -21
-30 25 c-16 13 -75 47 -130 74 -117 59 -206 74 -260 44z"/>
</g>
</svg>
